<?xml version="1.0" encoding="iso-8859-1"?>
<!-- Uploaded to: SVG Repo, www.svgrepo.com, Generator: SVG Repo Mixer Tools -->
<svg fill="#000000" version="1.1" id="Layer_1" xmlns="http://www.w3.org/2000/svg" xmlns:xlink="http://www.w3.org/1999/xlink" 
	 viewBox="0 0 512 512" xml:space="preserve">
<g>
	<g>
		<path d="M289.411,0.001L183.212,106.198l37.313,37.313l-5.577,5.577c-16.758,16.757-23.399,41.4-17.332,64.309
			c3.797,14.335-2.383,29.757-15.028,37.503L45.698,334.768c-25.144,15.403-41.553,41.033-45.022,70.315
			c-3.468,29.283,6.501,58.037,27.353,78.888C46.156,502.097,70.253,512,95.482,512c3.79-0.001,7.609-0.224,11.434-0.676
			c29.283-3.468,54.912-19.878,70.317-45.022l83.868-136.892c7.746-12.647,23.172-18.825,37.501-15.028
			c22.912,6.072,47.553-0.572,64.31-17.331l5.577-5.577l37.313,37.313L512,222.59L289.411,0.001z M339.617,273.755
			c-8.488,8.488-20.969,11.856-32.578,8.779c-28.303-7.497-58.74,4.704-74.031,29.664l-83.867,136.892
			c-10.099,16.484-26.901,27.242-46.099,29.515c-19.193,2.278-38.047-4.263-51.716-17.932
			c-13.669-13.669-20.205-32.519-17.932-51.716c2.272-19.198,13.031-35.999,29.514-46.099l136.892-83.866
			c24.961-15.292,37.159-45.735,29.664-74.03c-3.074-11.606,0.291-24.09,8.78-32.579l5.576-5.577L345.19,268.178L339.617,273.755z
			 M229.805,106.198l59.606-59.606L465.408,222.59l-59.606,59.606L229.805,106.198z"/>
	</g>
</g>
<g>
	<g>
		
			<rect x="331.125" y="105.698" transform="matrix(0.7071 -0.7071 0.7071 0.7071 -14.4361 293.9398)" width="32.946" height="117.396"/>
	</g>
</g>
</svg>