<?xml version="1.0" ?><!-- Uploaded to: SVG Repo, www.svgrepo.com, Generator: SVG Repo Mixer Tools -->
<svg width="800px" height="800px" viewBox="0 0 32 32" data-name="Layer 1" id="Layer_1" xmlns="http://www.w3.org/2000/svg"><defs><style>.cls-1{fill:none;stroke:#231f20;stroke-linejoin:round;}</style></defs><title/><rect class="cls-1" height="5" width="5" x="13.5" y="7.5"/><path class="cls-1" d="M14.35,12.5h3.29a4.85,4.85,0,0,1,4.85,4.85v10.5a.64.64,0,0,1-.64.64H10.14a.64.64,0,0,1-.64-.64V17.35A4.85,4.85,0,0,1,14.35,12.5Z"/><path class="cls-1" d="M17.5,4.68V7.5h-3V6.87A1.36,1.36,0,0,0,13.14,5.5H13c-.28,0-.49-.29-.49-.65V3.5h4.14C17.11,3.5,17.5,4,17.5,4.68Z"/></svg>